<svg xmlns="http://www.w3.org/2000/svg" xmlns:xlink="http://www.w3.org/1999/xlink" version="1.0" viewBox="0 0 150 60">
  <defs>
    <path id="a" d="m19.238-.59-.351-.281a4.232 4.232 0 0 1-.965-1.106l-2.918-4.656c-.094-.14-.14-.304-.094-.492a.767.767 0 0 1 .305-.426 7.35 7.35 0 0 0 1.531-1.433 8.37 8.37 0 0 0 1.457-2.657c.328-.988.52-2.023.52-3.105 0-1.082-.192-2.14-.52-3.129a8.748 8.748 0 0 0-1.457-2.68 8.054 8.054 0 0 0-2.707-2.093 8.43 8.43 0 0 0-3.434-.73h-7.43c-.163 0-.28.07-.327.214-.075.14-.051.258.07.375.375.422.586.918.586 1.48v19.286a2.07 2.07 0 0 1-.54 1.41c-.144.144-.167.261-.093.402.047.14.164.211.352.211h5.27c.14 0 .257-.047.304-.188A.418.418 0 0 0 8.75-.59a2.008 2.008 0 0 1-.59-1.457V-5.48c0-.188.047-.352.188-.493a.69.69 0 0 1 .496-.21h.562c.239 0 .45.117.59.328l2.89 4.656c.118.21.094.398-.046.586l-.024.023a.362.362 0 0 0-.023.402c.047.141.164.188.332.188h5.95c.163 0 .257-.07.304-.21.047-.142 0-.259-.14-.38Zm-6.09-11.36c-.59.755-1.437 1.106-2.543 1.106H8.844a.666.666 0 0 1-.496-.187.652.652 0 0 1-.188-.492v-6.493c0-.187.047-.351.188-.492a.694.694 0 0 1 .496-.215h1.761c.848 0 1.485.192 1.954.567.472.375.8.8 1.035 1.27.21.468.351.917.398 1.34.047.425.07.706.07.8a5.38 5.38 0 0 1-.234 1.55 4.202 4.202 0 0 1-.68 1.247Zm0 0"/>
    <path id="b" d="M17.121-23.543a1.943 1.943 0 0 1-1.387.543H3.2c-.164 0-.281.07-.328.21-.074.142-.074.259.024.376l.07.07c.375.426.562.918.562 1.485v19.093c0 .286-.047.543-.14.801a1.865 1.865 0 0 1-.422.684l-.07.07c-.098.14-.098.258-.024.398.047.141.164.188.328.188h12.535c.516 0 .989.188 1.387.543.117.117.258.14.399.07.144-.047.238-.164.238-.351V-4.61a.352.352 0 0 0-.215-.329c-.14-.046-.281-.023-.375.07a2.08 2.08 0 0 1-1.48.587H8.773a.574.574 0 0 1-.425-.164c-.118-.094-.164-.235-.164-.422v-3.528c0-.168.046-.308.164-.425a.685.685 0 0 1 .425-.164h2.07c.563 0 1.06.21 1.481.59.117.093.235.093.375.023s.211-.191.211-.332v-5.219c0-.14-.07-.238-.21-.308-.141-.07-.259-.07-.376 0a2.07 2.07 0 0 1-1.48.59h-2.07a.574.574 0 0 1-.426-.165c-.118-.093-.164-.234-.164-.425v-3.528c0-.164.046-.305.164-.422a.685.685 0 0 1 .425-.164h6.915c.562 0 1.058.211 1.48.586.094.117.234.14.375.07.145-.046.215-.164.215-.328v-5.27c0-.14-.094-.257-.238-.327a.41.41 0 0 0-.399.07Zm0 0"/>
    <path id="c" d="M16.816-20.555a8.054 8.054 0 0 0-2.707-2.093 8.402 8.402 0 0 0-3.433-.73h-7.5c-.164 0-.281.07-.328.214-.075.14-.051.258.07.375a2.45 2.45 0 0 1 .656 1.668v18.863c0 .66-.234 1.2-.656 1.668-.121.145-.145.262-.07.402.047.141.164.188.328.188h5.316c.14 0 .258-.047.305-.188A.418.418 0 0 0 8.75-.59a1.781 1.781 0 0 1-.52-1.27v-3.433c0-.234.07-.445.262-.633a.865.865 0 0 1 .633-.258h1.55a8.387 8.387 0 0 0 3.434-.707 7.543 7.543 0 0 0 2.707-2.093 8.37 8.37 0 0 0 1.457-2.657 9.78 9.78 0 0 0 .52-3.105c0-1.082-.191-2.14-.52-3.129a8.748 8.748 0 0 0-1.457-2.68Zm-3.597 8.606c-.59.754-1.438 1.105-2.543 1.105H8.89a.615.615 0 0 1-.473-.187c-.14-.117-.188-.258-.188-.446v-6.585c0-.165.047-.305.188-.446.145-.14.285-.215.473-.215h1.785c.847 0 1.484.192 1.953.567.473.375.8.8 1.035 1.27.211.468.352.917.399 1.34.046.425.07.706.07.8a5.38 5.38 0 0 1-.235 1.55 4.202 4.202 0 0 1-.68 1.247Zm0 0"/>
    <path id="d" d="M17.781-19.707a9.749 9.749 0 0 0-3.129-2.707c-1.199-.61-2.445-.941-3.761-.941-1.32 0-2.59.332-3.79.94-1.199.638-2.234 1.532-3.124 2.708a11.797 11.797 0 0 0-1.907 3.715c-.449 1.363-.66 2.82-.66 4.328 0 1.504.211 2.96.66 4.328a11.2 11.2 0 0 0 1.907 3.691C4.867-2.469 5.902-1.55 7.102-.94A7.984 7.984 0 0 0 10.89 0a7.878 7.878 0 0 0 3.761-.941c1.176-.61 2.235-1.528 3.13-2.704.843-1.082 1.48-2.304 1.925-3.69a14.513 14.513 0 0 0 0-8.656 12.443 12.443 0 0 0-1.926-3.716Zm-6.89 15.05c-.66 0-1.297-.187-1.86-.566a5.087 5.087 0 0 1-1.527-1.504c-.45-.636-.8-1.386-1.059-2.234-.261-.848-.379-1.738-.379-2.703 0-.941.118-1.86.38-2.707a8.142 8.142 0 0 1 1.058-2.234 5.22 5.22 0 0 1 1.527-1.528 3.325 3.325 0 0 1 1.86-.566c.656 0 1.27.191 1.855.566a5.508 5.508 0 0 1 1.508 1.528c.422.66.773 1.39 1.035 2.234.258.848.399 1.766.399 2.707 0 .965-.141 1.855-.399 2.703a8.67 8.67 0 0 1-1.035 2.234 5.36 5.36 0 0 1-1.508 1.504 3.34 3.34 0 0 1-1.855.567Zm0 0"/>
    <path id="e" d="M18.738-22.902a8.966 8.966 0 0 0-3.015-2.332 9.3 9.3 0 0 0-3.825-.813H3.54c-.184 0-.316.078-.367.235-.078.156-.055.289.078.417.473.524.734 1.157.734 1.864v21.015c0 .735-.261 1.336-.734 1.86-.133.16-.156.289-.078.445.05.16.183.211.367.211h5.922c.156 0 .289-.05.34-.21a.471.471 0 0 0-.051-.446c-.395-.418-.578-.89-.578-1.414v-3.825c0-.265.078-.5.289-.71a.962.962 0 0 1 .707-.286h1.73c1.364 0 2.645-.261 3.825-.789a8.365 8.365 0 0 0 3.015-2.332 9.293 9.293 0 0 0 1.625-2.96 10.89 10.89 0 0 0 .575-3.458 11.05 11.05 0 0 0-.575-3.488 9.758 9.758 0 0 0-1.625-2.984Zm-4.011 9.59c-.653.84-1.598 1.23-2.829 1.23H9.906a.67.67 0 0 1-.523-.207c-.16-.133-.211-.29-.211-.5v-7.336c0-.184.05-.34.21-.5.157-.156.313-.234.524-.234h1.992c.942 0 1.649.21 2.176.629.524.418.89.89 1.153 1.414.234.523.39 1.023.445 1.496.05.468.078.785.078.89 0 .63-.105 1.203-.262 1.727a4.68 4.68 0 0 1-.761 1.39Zm0 0"/>
    <path id="f" d="m21.438-.656-.395-.313a4.874 4.874 0 0 1-1.074-1.234l-3.25-5.188a.67.67 0 0 1-.106-.55.862.862 0 0 1 .34-.47c.656-.472 1.235-.995 1.707-1.6a9.209 9.209 0 0 0 1.621-2.962 10.88 10.88 0 0 0 .578-3.457c0-1.207-.21-2.386-.578-3.488a9.666 9.666 0 0 0-1.62-2.984 8.966 8.966 0 0 0-3.016-2.332 9.313 9.313 0 0 0-3.825-.813H3.54c-.185 0-.317.078-.368.235-.078.156-.055.289.078.417.418.473.656 1.024.656 1.653v21.488A2.31 2.31 0 0 1 3.301-.68c-.156.157-.184.285-.106.446.055.156.184.234.395.234h5.87c.157 0 .29-.05.34-.21a.471.471 0 0 0-.05-.446 2.253 2.253 0 0 1-.656-1.625v-3.824c0-.211.05-.395.21-.551a.752.752 0 0 1 .548-.235h.628c.266 0 .5.13.657.368l3.222 5.187c.133.234.106.445-.05.656l-.028.024c-.105.16-.105.289-.023.445.05.16.18.211.363.211h6.633c.183 0 .289-.078.34-.234.05-.16 0-.29-.157-.422Zm-6.79-12.656c-.656.84-1.597 1.23-2.828 1.23H9.852c-.207 0-.391-.05-.547-.207a.728.728 0 0 1-.211-.55v-7.235c0-.207.05-.39.21-.551a.752.752 0 0 1 .548-.234h1.968c.942 0 1.649.21 2.172.629.528.418.895.89 1.156 1.414.235.523.391 1.023.446 1.496.05.468.078.785.078.89 0 .63-.106 1.203-.262 1.727a4.68 4.68 0 0 1-.762 1.39Zm0 0"/>
    <path id="g" d="M19.813-21.96c-.997-1.31-2.176-2.306-3.489-3.013-1.336-.683-2.722-1.05-4.191-1.05-1.469 0-2.883.367-4.219 1.05-1.336.707-2.488 1.703-3.484 3.012a13.171 13.171 0 0 0-2.125 4.14c-.496 1.52-.73 3.145-.73 4.825 0 1.676.234 3.3.73 4.82A12.474 12.474 0 0 0 4.43-4.062C5.426-2.75 6.578-1.73 7.914-1.047A8.903 8.903 0 0 0 12.133 0c1.469 0 2.855-.34 4.191-1.047 1.313-.683 2.492-1.703 3.488-3.016.942-1.203 1.649-2.566 2.149-4.113a16.224 16.224 0 0 0 0-9.644c-.5-1.52-1.207-2.91-2.148-4.14Zm-7.68 16.773a3.693 3.693 0 0 1-2.07-.63 5.805 5.805 0 0 1-1.704-1.68c-.496-.706-.89-1.542-1.18-2.487-.288-.946-.417-1.938-.417-3.012 0-1.05.129-2.07.418-3.016A9.212 9.212 0 0 1 8.36-18.5c.472-.707 1.046-1.285 1.703-1.703a3.674 3.674 0 0 1 2.07-.629c.734 0 1.414.207 2.07.629A6.06 6.06 0 0 1 15.88-18.5a9.929 9.929 0 0 1 1.156 2.488c.285.946.445 1.965.445 3.016 0 1.074-.16 2.066-.445 3.012a9.439 9.439 0 0 1-1.156 2.488 6.016 6.016 0 0 1-1.676 1.68c-.656.418-1.336.628-2.07.628Zm0 0"/>
    <path id="h" d="M23.586-26.047h-5.61l-.027.05v-.05h-.496c-.183 0-.316.078-.367.235-.078.156-.078.289.027.417l.051.055c.316.34.395.707.262 1.125L13.129-9.328c-.05.156-.156.234-.313.234-.16 0-.265-.078-.316-.234L8.203-24.215c-.105-.418-.027-.812.29-1.152l.023-.028c.078-.128.078-.261.027-.418a.396.396 0 0 0-.367-.234H1.937c-.183 0-.312.078-.363.235-.054.156-.027.312.13.417.316.317.6.63.839.997.234.367.418.789.55 1.207L9.306-1.676c.101.418.023.758-.239 1.02-.129.16-.156.289-.078.445.051.16.184.211.367.211h6.946c.156 0 .289-.05.34-.21a.471.471 0 0 0-.051-.446c-.29-.262-.367-.602-.266-1.02l6.238-21.543a3.91 3.91 0 0 1 .5-1.125 4.5 4.5 0 0 1 .786-.996l.078-.055c.078-.128.078-.261.027-.418a.396.396 0 0 0-.367-.234Zm0 0"/>
    <path id="i" d="M23.848-.473a.272.272 0 0 0-.133-.234c-.602-.5-.996-1.129-1.203-1.914l-6.266-21.645c-.129-.422-.05-.812.262-1.129.082-.128.082-.261.027-.418a.396.396 0 0 0-.367-.234H9.25a.396.396 0 0 0-.367.235c-.078.156-.078.289.027.417.313.317.395.707.262 1.13L2.934-2.595c-.207.735-.63 1.364-1.23 1.887-.079.078-.13.156-.13.234a.39.39 0 0 0 .078.34c.078.106.184.133.34.133H8.07c.16 0 .29-.05.34-.21.055-.157.055-.286-.05-.419-.313-.316-.395-.707-.29-1.125l.813-2.726c.078-.29.238-.524.472-.684.211-.156.473-.262.786-.262h5.164c.289 0 .55.106.785.262.21.16.367.394.473.684l.785 2.726c.105.418 0 .785-.262 1.098v.027c-.106.156-.106.29-.027.418.054.16.183.211.367.211h6.027c.133 0 .238-.027.317-.133a.39.39 0 0 0 .078-.34Zm-9.434-10.14h-3.383c-.101 0-.183-.028-.234-.106-.078-.078-.106-.183-.05-.289l1.702-5.844c.024-.128.102-.207.262-.207.156 0 .234.079.285.207l1.68 5.844a.355.355 0 0 1-.055.29.235.235 0 0 1-.207.105Zm0 0"/>
    <path id="j" d="m21.543-19.602-.133-.156a3.18 3.18 0 0 1-.762-1.258c-.468-1.468-1.441-2.675-2.855-3.617a9.386 9.386 0 0 0-2.672-1.152 12.129 12.129 0 0 0-3.117-.395 12.96 12.96 0 0 0-3.2.418 9.892 9.892 0 0 0-2.75 1.157c-1.1.68-1.913 1.492-2.492 2.46-.574.97-.835 2.02-.835 3.172 0 2.2 1.02 4.086 3.117 5.633.734.578 1.52 1.05 2.386 1.469.864.418 1.754.84 2.645 1.207.523.262 1.102.523 1.676.785a21.6 21.6 0 0 1 1.574.813 7.72 7.72 0 0 1 1.18.863c.312.316.472.601.472.89 0 .368-.132.708-.394.973a2.962 2.962 0 0 1-.996.652c-.395.157-.813.29-1.285.368a5.79 5.79 0 0 1-1.309.133 7.325 7.325 0 0 1-1.625-.184 3.547 3.547 0 0 1-1.469-.606c-.105-.078-.183-.183-.183-.312a.346.346 0 0 1 .105-.34l.027-.027c.079-.133.079-.262.028-.418-.082-.16-.211-.239-.367-.239H2.516c-.184 0-.313.079-.368.239-.078.156-.078.285.028.418l.105.105c.367.418.602.864.758 1.309.473 1.52 1.414 2.726 2.883 3.644.785.524 1.703.918 2.7 1.18.995.285 2.07.418 3.171.418 1.309 0 2.543-.184 3.668-.55 1.129-.368 2.098-.864 2.91-1.52a7 7 0 0 0 1.91-2.305c.45-.89.684-1.863.684-2.938 0-1.125-.262-2.12-.762-2.96a8.056 8.056 0 0 0-1.91-2.2 14.337 14.337 0 0 0-2.57-1.625c-.942-.472-1.86-.89-2.75-1.312a49.375 49.375 0 0 1-1.809-.813 10.721 10.721 0 0 1-1.625-.863 6.34 6.34 0 0 1-1.18-.918c-.312-.312-.445-.629-.445-.969 0-.289.106-.55.367-.812.235-.262.551-.473.942-.656.367-.157.812-.29 1.312-.391.473-.105.969-.16 1.469-.16a8.97 8.97 0 0 1 1.676.183c.523.133.941.317 1.308.551.106.078.184.184.184.317 0 .128-.024.234-.106.312v.027c-.101.157-.101.29-.023.418.05.16.184.211.367.211h5.79c.16 0 .288-.05.366-.21a.469.469 0 0 0-.023-.419Zm0 0"/>
  </defs>
  <use xmlns:xlink="http://www.w3.org/1999/xlink" xlink:actuate="onLoad" xlink:href="#a" xlink:show="embed" xlink:type="simple" x="31.137" y="29.948" fill="#FFC1B2" fill-opacity=".302"/>
  <use xmlns:xlink="http://www.w3.org/1999/xlink" xlink:actuate="onLoad" xlink:href="#b" xlink:show="embed" xlink:type="simple" x="53.352" y="29.948" fill="#FFC1B2" fill-opacity=".302"/>
  <use xmlns:xlink="http://www.w3.org/1999/xlink" xlink:actuate="onLoad" xlink:href="#c" xlink:show="embed" xlink:type="simple" x="73.922" y="29.948" fill="#FFC1B2" fill-opacity=".302"/>
  <use xmlns:xlink="http://www.w3.org/1999/xlink" xlink:actuate="onLoad" xlink:href="#d" xlink:show="embed" xlink:type="simple" x="94.609" y="29.948" fill="#FFC1B2" fill-opacity=".302"/>
  <use xmlns:xlink="http://www.w3.org/1999/xlink" xlink:actuate="onLoad" xlink:href="#a" xlink:show="embed" xlink:type="simple" x="31.76" y="30.212" fill="#FFC1B2" fill-opacity=".502"/>
  <use xmlns:xlink="http://www.w3.org/1999/xlink" xlink:actuate="onLoad" xlink:href="#b" xlink:show="embed" xlink:type="simple" x="53.975" y="30.212" fill="#FFC1B2" fill-opacity=".502"/>
  <use xmlns:xlink="http://www.w3.org/1999/xlink" xlink:actuate="onLoad" xlink:href="#c" xlink:show="embed" xlink:type="simple" x="74.544" y="30.212" fill="#FFC1B2" fill-opacity=".502"/>
  <use xmlns:xlink="http://www.w3.org/1999/xlink" xlink:actuate="onLoad" xlink:href="#d" xlink:show="embed" xlink:type="simple" x="95.231" y="30.212" fill="#FFC1B2" fill-opacity=".502"/>
  <use xmlns:xlink="http://www.w3.org/1999/xlink" xlink:actuate="onLoad" xlink:href="#a" xlink:show="embed" xlink:type="simple" x="32.382" y="30.477" fill="#FFFAEF"/>
  <use xmlns:xlink="http://www.w3.org/1999/xlink" xlink:actuate="onLoad" xlink:href="#b" xlink:show="embed" xlink:type="simple" x="54.597" y="30.477" fill="#FFFAEF"/>
  <use xmlns:xlink="http://www.w3.org/1999/xlink" xlink:actuate="onLoad" xlink:href="#c" xlink:show="embed" xlink:type="simple" x="75.167" y="30.477" fill="#FFFAEF"/>
  <use xmlns:xlink="http://www.w3.org/1999/xlink" xlink:actuate="onLoad" xlink:href="#d" xlink:show="embed" xlink:type="simple" x="95.854" y="30.477" fill="#FFFAEF"/>
  <use xmlns:xlink="http://www.w3.org/1999/xlink" xlink:actuate="onLoad" xlink:href="#e" xlink:show="embed" xlink:type="simple" x=".365" y="53.094" fill="#FFC1B2" fill-opacity=".302"/>
  <use xmlns:xlink="http://www.w3.org/1999/xlink" xlink:actuate="onLoad" xlink:href="#f" xlink:show="embed" xlink:type="simple" x="23.418" y="53.094" fill="#FFC1B2" fill-opacity=".302"/>
  <use xmlns:xlink="http://www.w3.org/1999/xlink" xlink:actuate="onLoad" xlink:href="#g" xlink:show="embed" xlink:type="simple" x="48.174" y="53.094" fill="#FFC1B2" fill-opacity=".302"/>
  <use xmlns:xlink="http://www.w3.org/1999/xlink" xlink:actuate="onLoad" xlink:href="#h" xlink:show="embed" xlink:type="simple" x="72.432" y="53.094" fill="#FFC1B2" fill-opacity=".302"/>
  <use xmlns:xlink="http://www.w3.org/1999/xlink" xlink:actuate="onLoad" xlink:href="#i" xlink:show="embed" xlink:type="simple" x="98" y="53.094" fill="#FFC1B2" fill-opacity=".302"/>
  <use xmlns:xlink="http://www.w3.org/1999/xlink" xlink:actuate="onLoad" xlink:href="#j" xlink:show="embed" xlink:type="simple" x="123.437" y="53.094" fill="#FFC1B2" fill-opacity=".302"/>
  <use xmlns:xlink="http://www.w3.org/1999/xlink" xlink:actuate="onLoad" xlink:href="#e" xlink:show="embed" xlink:type="simple" x=".987" y="53.359" fill="#FFC1B2" fill-opacity=".502"/>
  <use xmlns:xlink="http://www.w3.org/1999/xlink" xlink:actuate="onLoad" xlink:href="#f" xlink:show="embed" xlink:type="simple" x="24.04" y="53.359" fill="#FFC1B2" fill-opacity=".502"/>
  <use xmlns:xlink="http://www.w3.org/1999/xlink" xlink:actuate="onLoad" xlink:href="#g" xlink:show="embed" xlink:type="simple" x="48.796" y="53.359" fill="#FFC1B2" fill-opacity=".502"/>
  <use xmlns:xlink="http://www.w3.org/1999/xlink" xlink:actuate="onLoad" xlink:href="#h" xlink:show="embed" xlink:type="simple" x="73.055" y="53.359" fill="#FFC1B2" fill-opacity=".502"/>
  <use xmlns:xlink="http://www.w3.org/1999/xlink" xlink:actuate="onLoad" xlink:href="#i" xlink:show="embed" xlink:type="simple" x="98.623" y="53.359" fill="#FFC1B2" fill-opacity=".502"/>
  <use xmlns:xlink="http://www.w3.org/1999/xlink" xlink:actuate="onLoad" xlink:href="#j" xlink:show="embed" xlink:type="simple" x="124.06" y="53.359" fill="#FFC1B2" fill-opacity=".502"/>
  <use xmlns:xlink="http://www.w3.org/1999/xlink" xlink:actuate="onLoad" xlink:href="#e" xlink:show="embed" xlink:type="simple" x="1.61" y="53.623" fill="#FFFAEF"/>
  <use xmlns:xlink="http://www.w3.org/1999/xlink" xlink:actuate="onLoad" xlink:href="#f" xlink:show="embed" xlink:type="simple" x="24.663" y="53.623" fill="#FFFAEF"/>
  <use xmlns:xlink="http://www.w3.org/1999/xlink" xlink:actuate="onLoad" xlink:href="#g" xlink:show="embed" xlink:type="simple" x="49.419" y="53.623" fill="#FFFAEF"/>
  <use xmlns:xlink="http://www.w3.org/1999/xlink" xlink:actuate="onLoad" xlink:href="#h" xlink:show="embed" xlink:type="simple" x="73.677" y="53.623" fill="#FFFAEF"/>
  <use xmlns:xlink="http://www.w3.org/1999/xlink" xlink:actuate="onLoad" xlink:href="#i" xlink:show="embed" xlink:type="simple" x="99.245" y="53.623" fill="#FFFAEF"/>
  <use xmlns:xlink="http://www.w3.org/1999/xlink" xlink:actuate="onLoad" xlink:href="#j" xlink:show="embed" xlink:type="simple" x="124.682" y="53.623" fill="#FFFAEF"/>
</svg>
