<svg xmlns="http://www.w3.org/2000/svg" width="375" viewBox="0 0 375 375" height="375" version="1.0"><defs><clipPath id="a"><path d="M 10.105469 10.105469 L 364.855469 10.105469 L 364.855469 364.855469 L 10.105469 364.855469 Z M 10.105469 10.105469"/></clipPath></defs><g clip-path="url(#a)"><path fill="#FFF" d="M 136.800781 10.105469 L 35.445312 10.105469 C 21.449219 10.105469 10.105469 21.449219 10.105469 35.445312 L 10.105469 136.800781 C 10.105469 150.796875 21.449219 162.140625 35.445312 162.140625 L 136.800781 162.140625 C 150.796875 162.140625 162.140625 150.796875 162.140625 136.800781 L 162.140625 35.445312 C 162.140625 21.449219 150.796875 10.105469 136.800781 10.105469 Z M 136.800781 212.820312 L 35.445312 212.820312 C 21.449219 212.820312 10.105469 224.164062 10.105469 238.160156 L 10.105469 339.515625 C 10.105469 353.511719 21.449219 364.855469 35.445312 364.855469 L 136.800781 364.855469 C 150.796875 364.855469 162.140625 353.511719 162.140625 339.515625 L 162.140625 238.160156 C 162.140625 224.164062 150.796875 212.820312 136.800781 212.820312 Z M 339.515625 10.105469 L 238.160156 10.105469 C 224.164062 10.105469 212.820312 21.449219 212.820312 35.445312 L 212.820312 136.800781 C 212.820312 150.796875 224.164062 162.140625 238.160156 162.140625 L 339.515625 162.140625 C 353.511719 162.140625 364.855469 150.796875 364.855469 136.800781 L 364.855469 35.445312 C 364.855469 21.449219 353.511719 10.105469 339.515625 10.105469 Z M 339.515625 212.820312 L 238.160156 212.820312 C 224.164062 212.820312 212.820312 224.164062 212.820312 238.160156 L 212.820312 339.515625 C 212.820312 353.511719 224.164062 364.855469 238.160156 364.855469 L 339.515625 364.855469 C 353.511719 364.855469 364.855469 353.511719 364.855469 339.515625 L 364.855469 238.160156 C 364.855469 224.164062 353.511719 212.820312 339.515625 212.820312 Z M 339.515625 212.820312"/></g></svg>